<svg class="svg-icon" style="width: 1em; height: 1em;vertical-align: middle;fill: currentColor;overflow: hidden;" viewBox="0 0 1024 1024" version="1.1" xmlns="http://www.w3.org/2000/svg"><path d="M512.398124 783.998096c-52.800216 0-96.000762 43.200546-96.000761 96.000761s43.200546 96.000762 96.000761 96.000762 96.000762-43.200546 96.000762-96.000762-43.200546-96.000762-96.000762-96.000761z m256-63.998477c-52.800216 0-96.000762 43.200546-96.000761 96.000762s43.200546 96.000762 96.000761 96.000762 96.000762-43.200546 96.000762-96.000762-43.200546-96.000762-96.000762-96.000762z m-511.997968 0c-52.800216 0-96.000762 43.200546-96.000762 96.000762s43.200546 96.000762 96.000762 96.000762 96.000762-43.200546 96.000761-96.000762-43.200546-96.000762-96.000761-96.000762z" fill="#324D5B" /><path d="M217.999445 475.199911c162.400171-100.000286 425.598908-100.000286 587.999079 0s162.400171 262.400457 0 361.598401c-162.400171 100.000286-425.598908 100.000286-587.999079 0s-162.400171-261.600146 0-361.598401z" fill="#E2574C" /><path d="M257.998746 812.799137c-156.800025-96.799042-162.400171-251.200165-16.000127-351.19842-7.999048 3.999524-16.000127 8.799359-23.999174 13.599194-162.400171 100.000286-162.400171 262.400457 0 361.598401 162.400171 100.000286 425.598908 100.000286 587.999079 0 5.600146-3.199213 11.200292-7.200768 16.000127-10.399981-163.200482 86.399061-409.598781 81.599226-563.999905-13.599194z" fill="#CB4E44" /><path d="M149.999413 296.799613c200.000571-118.399314 523.998572-118.399314 723.999143 0s200.000571 311.199118 0 429.598432-523.998572 118.399314-723.999143 0-199.99854-310.398807 0-429.598432z" fill="#324D5B" /><path d="M906.799121 695.198102c-200.000571 118.399314-523.998572 118.399314-723.999143 0-161.59986-96.000762-192.799803-239.199562-94.40014-353.599352-135.199752 118.399314-114.399791 280.799486 61.599575 385.599606 200.000571 118.399314 523.998572 118.399314 723.999143 0 38.400711-23.200895 69.600654-48.800692 93.599829-75.99908-17.600749 15.199816-37.6004 29.599321-60.799264 43.998826z" fill="#2D4552" /><path d="M512.398124 48.000381c176.799676 0 319.998477 143.1988 319.998477 319.998476S689.197801 623.998857 512.398124 623.998857 192.399648 544.798534 192.399648 367.998857 335.598448 48.000381 512.398124 48.000381z" fill="#E4E7E7" /><path d="M192.399648 367.998857c0 175.999365 142.400521 255.199689 317.599574 256h2.400934V48.000381c-176.801708 0-320.000508 143.1988-320.000508 319.998476z" fill="#D8DBDB" /><path d="M512.398124 623.998857c71.999556 0 138.398965-12.800914 191.999492-40.799612V367.998857c0-106.400743-85.600781-191.999492-191.999492-191.999492s-191.999492 85.600781-191.999492 191.999492v215.200388c53.600527 27.998699 119.999937 40.799613 191.999492 40.799612z" fill="#3DB39E" /><path d="M320.398632 367.998857v215.200388c52.800216 27.200419 119.199625 40.799613 190.39887 40.799612h1.600622V175.999365c-106.398711 0-191.999492 86.401092-191.999492 191.999492z" fill="#3AAA96" /><path d="M512.398124 304.000381c52.800216 0 96.000762 43.200546 96.000762 96.000762s-43.200546 96.000762-96.000762 96.000761-96.000762-43.200546-96.000761-96.000761 43.202577-96.000762 96.000761-96.000762z" fill="#FFFFFF" /><path d="M512.398124 304.000381c-52.800216 0-96.000762 43.200546-96.000761 96.000762s43.200546 96.000762 96.000761 96.000761v-192.001523z" fill="#F2F2F2" /><path d="M512.398124 351.99873c26.400108 0 48.000381 21.600273 48.000381 48.000381s-21.600273 48.000381-48.000381 48.000381-48.000381-21.600273-48.000381-48.000381 21.602304-48.000381 48.000381-48.000381z" fill="#324D5B" /><path d="M512.398124 351.99873c-26.400108 0-48.000381 21.600273-48.000381 48.000381s21.600273 48.000381 48.000381 48.000381v-96.000762z" fill="#2F4956" /></svg>